<svg aria-hidden="true" style="position: absolute; width: 0; height: 0; overflow: hidden;" version="1.1" xmlns="http://www.w3.org/2000/svg" xmlns:xlink="http://www.w3.org/1999/xlink">
<defs>
<symbol id="icon-play-white" viewBox="0 0 32 32">
<path fill="#fff" style="fill: var(--color1, #fff)" d="M16.145 0.159c-8.699 0-15.775 7.077-15.775 15.775s7.076 15.775 15.775 15.775 15.775-7.077 15.775-15.775c0-8.698-7.076-15.775-15.775-15.775zM16.145 30.394c-7.973 0-14.46-6.487-14.46-14.46s6.487-14.46 14.46-14.46c7.973 0 14.46 6.487 14.46 14.46s-6.487 14.46-14.46 14.46z"></path>
<path fill="#fff" style="fill: var(--color1, #fff)" d="M22.416 15.381l-9.202-5.916c-0.202-0.132-0.462-0.139-0.67-0.024-0.212 0.116-0.343 0.336-0.343 0.577v11.831c0 0.241 0.131 0.462 0.343 0.577 0.098 0.053 0.207 0.080 0.315 0.080 0.123 0 0.248-0.035 0.356-0.105l9.202-5.916c0.187-0.121 0.302-0.329 0.302-0.553s-0.114-0.432-0.302-0.553zM13.516 20.645v-9.423l7.329 4.711-7.329 4.711z"></path>
</symbol>
<symbol id="icon-twitter" viewBox="0 0 42 32">
<path d="M40.696 4.544c-1.478 0.599-3.054 0.996-4.696 1.188 1.689-0.931 2.979-2.395 3.585-4.159-1.575 0.867-3.314 1.48-5.168 1.821-1.496-1.47-3.627-2.381-5.953-2.381-4.512 0-8.144 3.381-8.144 7.527 0 0.596 0.055 1.17 0.189 1.716-6.775-0.305-12.771-3.303-16.798-7.871-0.703 1.126-1.116 2.416-1.116 3.804 0 2.606 1.453 4.916 3.62 6.254-1.309-0.023-2.594-0.374-3.682-0.927 0 0.023 0 0.053 0 0.083 0 3.657 2.825 6.694 6.529 7.394-0.663 0.168-1.386 0.248-2.137 0.248-0.522 0-1.048-0.028-1.543-0.128 1.056 2.98 4.052 5.171 7.615 5.242-2.773 2.003-6.293 3.209-10.105 3.209-0.668 0-1.309-0.028-1.95-0.103 3.61 2.15 7.888 3.377 12.502 3.377 14.997 0 23.196-11.47 23.196-21.413 0-0.333-0.012-0.654-0.030-0.973 1.617-1.060 2.977-2.384 4.085-3.907z"></path>
</symbol>
<symbol id="icon-instagram" viewBox="0 0 35 32">
<path fill="#fff" style="fill: var(--color1, #fff)" d="M29.954 0.102h-24.359c-2.782 0-5.047 2.091-5.047 4.66v22.492c0 2.57 2.264 4.66 5.047 4.66h24.359c2.783 0 5.047-2.090 5.047-4.66v-22.492c0-2.569-2.264-4.66-5.047-4.66zM32.982 27.253c0 1.542-1.359 2.796-3.028 2.796h-24.359c-1.669 0-3.028-1.254-3.028-2.796v-22.492c0-1.541 1.359-2.796 3.028-2.796h24.359c1.669 0 3.028 1.254 3.028 2.796v22.492z"></path>
<path fill="#fff" style="fill: var(--color1, #fff)" d="M28.877 3.892c-1.113 0-2.019 0.836-2.019 1.864s0.906 1.864 2.019 1.864c1.113 0 2.019-0.836 2.019-1.864s-0.906-1.864-2.019-1.864z"></path>
<path fill="#fff" style="fill: var(--color1, #fff)" d="M17.774 7.62c-5.009 0-9.084 3.763-9.084 8.388s4.075 8.388 9.084 8.388c5.009 0 9.084-3.763 9.084-8.388s-4.075-8.388-9.084-8.388zM17.774 22.531c-3.896 0-7.065-2.926-7.065-6.524s3.169-6.524 7.065-6.524c3.896 0 7.066 2.926 7.066 6.524s-3.169 6.524-7.066 6.524z"></path>
</symbol>
<symbol id="icon-facebook" viewBox="0 0 17 32">
<path d="M14.91 6.409c-0.827-0.242-1.778-0.403-2.646-0.403-1.075 0-3.391 0.684-3.391 2.013v3.181h5.5v5.355h-5.5v14.776h-5.541v-14.776h-2.729v-5.355h2.729v-2.698c0-4.067 1.902-7.449 6.492-7.449 1.571 0 4.383 0.081 5.913 0.604l-0.827 4.751z"></path>
</symbol>
</defs>
</svg>
